<mxfile host="app.diagrams.net" modified="2024-01-26T06:57:46.948Z" agent="Mozilla/5.0 (Windows NT 10.0; Win64; x64) AppleWebKit/537.36 (KHTML, like Gecko) Chrome/120.0.0.0 Safari/537.36 Edg/120.0.0.0" etag="N38Hi5y12pNCvUBArPky" version="23.0.0" type="github">
  <diagram name="第 1 页" id="0ob1iZy1dAKtV9MFENm6">
    <mxGraphModel dx="946" dy="613" grid="1" gridSize="10" guides="1" tooltips="1" connect="1" arrows="1" fold="1" page="1" pageScale="1" pageWidth="827" pageHeight="1169" math="0" shadow="0">
      <root>
        <mxCell id="0" />
        <mxCell id="1" parent="0" />
        <mxCell id="FPIvqE7i1kk4Mldst6vu-2" value="" style="html=1;verticalLabelPosition=bottom;labelBackgroundColor=#ffffff;verticalAlign=top;shadow=0;dashed=0;strokeWidth=2;shape=mxgraph.ios7.misc.down;strokeColor=#FFFFFF;" parent="1" vertex="1">
          <mxGeometry x="100" y="110" width="12" height="6" as="geometry" />
        </mxCell>
        <mxCell id="_yo2szXEqY88CM3MnoLY-1" value="" style="shape=image;verticalLabelPosition=bottom;labelBackgroundColor=default;verticalAlign=top;aspect=fixed;imageAspect=0;image=data:image/png,iVBORw0KGgoAAAANSUhEUgAABKkAAAHOCAYAAABTilr7AAAgAElEQVR4Ae3d32tbB5738fmvdm/2wrd7m7vAQi8ecrExDzymPHRhiOmShxIyKaQUh5Jts5DsbE1pTRsSAg7rkqaMwaQUg8OMirEpbghlVU8k24nj7Hwfjmw5x8fn6IcTHUtHr4I3tiTrx8tvOcNnj5TfTZydCh+DMfi7/xfhg4EGNKABDWhAAxrQgAY0oAENaEADGujewO8MVIMZqBJXAXYPkBEjDWhAAxrQgAY0oAENaEADGtCABpIGjFQDPJLMk8yTTAMa0IAGNKABDWhAAxrQgAY0oAEN9NaAkcpI5YgvL8vUgAY0oAENaEADGtCABjSgAQ1o4NQbMFIZqU49Qotyb4syJ04a0IAGNKABDWhAAxrQgAY0UOUGflflBzeIx/b3/7oV//DP/9nTm80P4vZdp19IGtCABjSgAQ1oQAMa0IAGNKABDVSxASPVCQ7nS4aqXt5wvorBeEx+EWpAAxrQgAY0oAENaEADGtCABjQwiAaMVCcYqZIfhJHKE3IQT0jXqSsNaEADGtCABjSgAQ1oQAMaGNcGjFRGKu9JdcIGxvWXhsftL0wNaEADGtCABjSgAQ1oQAMaGEQDRqoTDhSOpPKEHMQT0nXqSgMa0IAGNKABDWhAAxrQgAbGtQEjlZHKkVQnbGBcf2l43P7C1IAGNKABDWhAAxrQgAY0oIFBNGCkOuFA4UgqT8hBPCFdp640oAENaEADGtCABjSgAQ1oYFwbMFIZqRxJdcIGxvWXhsftL0wNaEADGtCABjSgAQ1oQAMaGEQDRqoTDhSOpPKEHMQT0nXqSgMa0IAGNKABDWhAAxrQgAbGtYHCkeof/y3i/3z++uP8v72OpNN54wJppHrdw7j8zD1OP3MNaEADGtCABjSgAQ1oQAMa0MDgGsgdqf7p+4jGXsTaRsTywUfy9fL3EZ3O6/UH9Zco/u+///z6wXa6XPsa/iPnSKjk+xa+3r+eha3Xn/d6/3q5nJHq9c+pFy+X4aUBDWhAAxrQgAY0oAENaEADGtBApwZyR6r/eBKxNJ+Bm4/YfRLR6by8G0ouf+S/J6nr/VNEbEVcyBmakuv6S4fzWudHxLGR6k8R6aHr776O+O+8yxXcZt5jyDvNSJX6Ob6hZZ6v0/hqQAMa0IAGNKABDWhAAxrQgAbGq4HCkap9JNJhEMnYczBSFZ13eNmc0SI5uik7KF34c2ZQynzfSUaqXo6+Skazv/zpzX7QRqo38+vUivPYakADGtCABjSgAQ1oQAMa0IAGxq+BUxmpkpfgFf2XHrJ6GZzSl09Gr+S/7GlHjqzKDGEnjd5INX5PlpO24vu0ogENaEADGtCABjSgAQ1oQAMa6N5A4Uj1tl7u1/4hpI+kKnqfqPRlku/r60iq5Eivrf3vKRrADk9Pv+TwhKOVkap7XO2fvT9ZaUADGtCABjSgAQ1oQAMa0IAGNNCtgdyRKnlz9N29iMbz1x/J1+03Ti86r9ONpQeo9EiVfN4+8il9meS6+hmpkve+Sl6GmL6+5Dq6vaSw033udJ6RypOrUx/O04cGNKABDWhAAxrQgAY0oAENaKC/BnJHqgTxn25H3HscsXDw8R+3X19xp/OKfgDpAarnkerw0KfiT9oDV/t2k+vu+p8jqaLt5c/XXbNgoQENaEADGtCABjSgAQ1oQAMaOL0Gckeq//WniN3tiOWN1x+/bO+/2Xin8zr9IE80Up3gX/dzJNXpxdTp5+88PxcNaEADGtCABjSgAQ1oQAMa0IAGOjWQO1IlL537PnXkVOsKbkc0Dv51v6LzOt1QMlK1/jt436jWvxB48D5SFw7eFyo9ZCXX1c/L/dpvmt6+mW5/vumbqXu5nydWp96dpw8NaEADGtCABjSgAQ1oQAMa0EB/DRSOVK0RKf2m4smgdDBSFZ2Xh58MXq3/cl5id/jSvIIjpvoZqbK33RqtnkQkw9dfnkS86SiVvX4jVX+hZf18zU8DGtCABjSgAQ1oQAMa0IAGNKCBdAMDH6nSN3b4eTJ4JctVe7j60/6OlR2SDo++2j879/9m35OqfURV+7raR2dlTz+8L+khro/PjVSeSG/akO/XkAY0oAENaEADGtCABjSgAQ1o4HUDuSPVjScRy9+9vlAC9o/fRew+ieh0Xi+wraOnCo6cSo66ao9LyXX1cyRV+4it9Pe3riNe/+uBydftsSoK7kMvjyG5jJHqaB+9urkcNw1oQAMa0IAGNKABDWhAAxrQgAbyGsgdqf7xdsR/70XsPo9oHHzs7kUs3I7odF7eDVT1NCOVJ1RV2/a4tK0BDWhAAxrQgAY0oAENaEADp9FA7kh1Gndk1G7TSOUJO2rNur+a1YAGNKABDWhAAxrQgAY0oIFhbsBI1cf7UKV/kEYqT+x0Dz7XgwY0oAENaEADGtCABjSgAQ1o4M0aMFIZqcKT6M2eRPz4aUADGtCABjSgAQ1oQAMa0IAG3rwBI5WRykh1wgb8AnrzX0AMGWpAAxrQgAY0oAENaEADGtBAuwEj1QkHCi/38yRqP4n8qQUNaEADGtCABjSgAQ1oQAMa0MCbN2CkMlI5kuqEDfgF9Oa/gBgy1IAGNKABDWhAAxrQgAY0oIF2A0aqEw4UjqTyJGo/ifypBQ1oQAMa0IAGNKABDWhAAxrQwJs3YKQyUjmS6oQN+AX05r+AGDLUgAY0oAENaEADGtCABjSggXYDRqoTDhSOpPIkaj+J/KkFDWhAAxrQgAY0oAENaEADGtDAmzdgpDJSOZLqhA34BfTmv4AYMtSABjSgAQ1oQAMa0IAGNKCBdgNGqhMOFI6k8iRqP4n8qQUNaEADGtCABjSgAQ1oQAMa0MCbN2CkOsFI9ff/uhVGqjePzxOYoQY0oAENaEADGtCABjSgAQ1oQAPtBoxUfY5UyUD1D//8n0aqPt3awfnTLx8NaEADGtCABjSgAQ1oQAMa0IAG8hr4XS9HBLnMVE+jVNYpD9xpnoga0IAGNKABDWhAAxrQgAY0oAENaOB4A0aqsycboLKDVN7XgjseHBMmGtCABjSgAQ1oQAMa0IAGNKABDeQ1YKQyUvnX/bx0UQMa0IAGNKABDWhAAxrQgAY0oIFTb8BIZaQ69Qjz1lOnWdU1oAENaEADGtCABjSgAQ1oQAPj1YCRykhlpLKWa0ADGtCABjSgAQ1oQAMa0IAGNHDqDRipjFSnHqFlfLyWcT9vP28NaEADGtCABjSgAQ1oQAMayGvASGWkMlJZyzWgAQ1oQAMa0IAGNKABDWhAAxo49QaMVAMcqba2n4cPBhrQgAY0oAENaEADGtCABjSgAQ1ooHsDRiojlSHNmKgBDWhAAxrQgAY0oAENaEADGtDAqTdgpDJSnXqE1uTuazIjRhrQgAY0oAENaEADGtCABjRQ9QaMVEYqI5W1XAMa0IAGNKABDWhAAxrQgAY0oIFTb8BIZaQ69QirvgR7fP6/HRrQgAY0oAENaEADGtCABjSgge4NGKmMVEYqa7kGNKABDWhAAxrQgAY0oAENaEADp96AkcpIdeoRWpO7r8mMGGlAAxrQgAY0oAENaEADGtBA1RswUhmpjFTWcg1oQAMa0IAGNKABDWhAAxrQgAZOvQEjlZHq1COs+hLs8fn/dmhAAxrQgAY0oAENaEADGtCABro3YKQyUhmprOUa0IAGNKABDWhAAxrQgAY0oAENnHoDRioj1UAjfNbciV/rzXjy67OR/Ujuf/I4rN7dV29GjDSgAQ1oQAMa0IAGNKABDWjgpA0YqYxUAxtfkmFnlMep7H03VPlFe9JftL5POxrQgAY0oAENaEADGtCABro3YKQyUg1spBr1I6iyI1XyePxS6f5LhREjDWhAAxrQgAY0oAENaEADGjhJA0YqI9XAhpfsyFOFr0/yJPM9fjlrQAMa0IAGNKABDWhAAxrQgAa6N2CkMlIZqfp4vyy/VLr/UmHESAMa0IAGNKABDWhAAxrQgAZO0oCRykhlpDJSDayBk/xS8j3+MtOABjSgAQ1oQAMa0IAGNDCeDRipjFQDGyiq8PK+7GPwi3I8f1H6ufu5a0ADGtCABjSgAQ1oQAMaGHwDRiojlZHKkVQDa8Av8cH/EmfMWAMa0IAGNKABDWhAAxqoSgNGKiPVwAaK7FFIVfi6Kk98j8NfYhrQgAY0oAENaEADGtCABjQwbA0YqYxURipHUg2sgWH7hef++EtYAxrQgAY0oAENaEADGtDA8DZgpDJSDWygqMKRU9nH4JfZ8P4y87Pxs9GABjSgAQ1oQAMa0IAGNDDaDRipjFRGKkdSDawBf0GM9l8Qfn5+fhrQgAY0oAENaEADGtBAmQ0YqYxUAxsoskchVeHrMp+cbstfBhrQgAY0oAENaEADGtCABjQwTg0YqYxURipHUg2sgXH6Zeqx+h8PGtCABjSgAQ1oQAMa0IAG3qwBI5WRamADRRWOnMo+Br9w3uwXDj9+GtCABjSgAQ1oQAMa0IAGNFDUgJHKSGWkciTVwBoo+sXjdH8paUADGtCABjSgAQ1oQAMa0EC2ASOVkWpgA0X2KKQqfJ19AvnaL1UNaEADGtCABjSgAQ1oQAMa0MDbacBIZaQyUjmSamAN+EX9dn5Rc+SoAQ1oQAMa0IAGNKABDYxDA0YqI9XABooqHDmVfQzj8EvBY/SXnwY0oAENaEADGtCABjSgAQ2cRgNGKiOVkcqRVANr4DR+qblNf5lqQAMa0IAGNKABDWhAAxoYzQaMVEaqgQ0U2aOQqvC1X3Sj+YvOz83PTQMa0IAGNKABDWhAAxrQwPA3YKQyUhmpHEk1sAb8JTD8fwn4GfkZaUADGtCABjSgAQ1oQAPD0oCRykg1sIGiCkdOZR/DsDxx3Q9/iWhAAxrQgAY0oAENaEADGtBA1RowUhmpjFSOpBpYA1X7henx+B8BGtCABjSgAQ1oQAMa0IAGBteAkcpINbCBInsUUhW+9stocL+M2LLVgAY0oAENaEADGtCABjQw3g0YqYxURipHUg2sAX/BjPdfMH7+fv4a0IAGNKABDWhAAxrQQD8NGKmMVAMbKKpw5FT2MfTz5HJZv4w1oAENaEADGtCABjSgAQ1oQAO9N2CkMlIZqRxJNbAG/DLu/ZcxK1Ya0IAGNKABDWhAAxrQwLg3YKQyUg1soMgehVSFr8f9F4bH7y9NDWhAAxrQgAY0oAENaEADGhhUA0YqI9XARqpf682owjDVfgzJ4xnUE9H1+iWvAQ1oQAMa0IAGNKABDWhAA+PegJHKSDWw4eVZc6dSI1XyeMb9F4bH7y9NDWhAAxrQgAY0oAENaEADGhhUA0YqI9VAh5dk2Bn1I6qS+2+g8kt4UL+EXa+2NKABDWhAAxrQgAY0oAEN7DdgpDJSDXSk8kTzy1YDGtCABjSgAQ1oQAMa0IAGNKCBXhowUhmpjFTbfln08svCZXSiAQ1oQAMa0IAGNKABDWhAA4NswEhlpDJSGak0oAENaEADGtCABjSgAQ1oQAMaOPUGeh+p3r0e175+GPd/XIvF7x/G3Bezcf7dqZgY4Mgz6tc9yHXRdVuvNaABDWhAAxrQgAY0oAENaEADGqhSA91HqndvxdxPjdiNiN1GPWo/rcXKT0+j/jIiXu3E+tI3cd5QlTvWVSkUj8UvPg1oQAMa0IAGNKABDWhAAxrQgAYG2UDnker9hag9j9h9uhyffjCdGWKm49wni/vnry4YqnKGukH+4JpbO+GDgQY0oAENaEADGtCABjSgAQ1oQANVaaDDSPVRzP0Ssbu6EFOT2Zf1XYqLX8zH1fenYiIZsl5GPPnuRmbEyn7P+H39tkeqqkTncfgFqgENaEADGtCABjSgAQ1oQAMa0EC2geKR6rPH0YynMZcMUemjhN79Mu7/shfxsh53ZvbPO/PVWuy+XItP05fz+Vt9w7HsD25raycazW0fDDSgAQ1oQAMa0IAGNKABDWhAAxqoRAOFI9XFxUbE+kKcSY1N73z2KNaTl//Va3H/3sGRVK3z56MWjXhwMFodGbVS3z9up7+tI6naA9Wr//lb+GCgAQ1oQAMa0IAGNKABDWhAAxrQQBUbKB6plhrR/PHLw6OoLn5bb715eqT+W/+v6wfn34oHmxG1rzNHXY3xQJUMcm9jpGoPVMlRU9kAUz8KnxIgQIAAAQIECBAgQIAAAQIERlqgcKR677t6xC8P49zB0HTx241YX69FLXmpX+xF7e7M66OsJhf2j6T62EiVPlrsTUeq9kCV/GmkGunnmTtPgAABAgQIECBAgAABAgQIdBEoHKkmPnwU9fR7Uk3eiLn1/feiuv/ZpcMjrJJR5vz804jtx3F1zI+cSg9Ub+NIqvZIlQxUW1uOpOrSsrMJECBAgAABAgQIECBAgACBERYoHqnOXombq3sRm8txeXIqbv4UEfXHcS3zRupnrj6M9Zd7Ufv6ypHhKjvYjOPXb+tIqmSk+uuzppf7jfATzV0nQIAAAQIECBAgQIAAAQIEOgt0GKmmYmJyNh7Uk3Fqf6jKDk1nPlmO+quI+uLs65f+OZrqcKx7k5EqfRTVs8ZWbP61YaTq3LJzCRAgQIAAAQIECBAgQIAAgREW6DxSJYPT5I3WUJV+E/X9sWr/zdLrizcMVAXDnJFqhJ8Z7joBAgQIECBAgAABAgQIECBQqkD3kersVFxcakSsLxwdo9pvlj7jzdKzR5i1vzZSldqyGyNAgAABAgQIECBAgAABAgRGWKCnkar9sr5jj7PgZYDtkWbc/zRSHSvGCQQIECBAgAABAgQIECBAgACBXIGeRqpkbHrn/evx3qWjH+ffdRRVpyHu7Y5Uz7wnVW7CTiRAgAABAgQIECBAgAABAgSqINDjSHU97vy8E83tox/r/3X98E3CO40143re2xypfts0UlXhCecxECBAgAABAgQIECBAgAABAvkCPY5UUzHxfxdiJT1S/bQQ7xS8Yfi4jlLZx22kyo/OqQQIECBAgAABAgQIECBAgACBrEDvI9XZ6Tj3weuX+039y7SjqLqMdEaqbG6+JkCAAAECBAgQIECAAAECBAjkC/QxUnn/qeyRUt2+NlLlR+dUAgQIECBAgAABAgQIECBAgEBWwEjV5WiobkNUp/ONVNncfE2AAAECBAgQIECAAAECBAgQyBcwUhmp8stwKgECBAgQIECAAAECBAgQIECgRAEjlZGqxNzcFAECBAgQIECAAAECBAgQIEAgX8BIZaTKL8OpBAgQIECAAAECBAgQIECAAIESBYxURqoSc3NTBAgQIECAAAECBAgQIECAAIF8ASOVkSq/DKcSIECAAAECBAgQIECAAAECBEoUMFIZqUrMzU0RIECAAAECBAgQIECAAAECBPIFjFRGqvwynEqAAAECBAgQIECAAAECBAgQKFHASGWkKjE3N0WAAAECBAgQIECAAAECBAgQyBcwUhmp8stwKgECBAgQIECAAAECBAgQIECgRAEjlZGqxNzcFAECBAgQIECAAAECBAgQIEAgX8BIZaTKL8OpBAgQIECAAAECBAgQIECAAIESBYxURqoSc3NTBAgQIECAAAECBAgQIECAAIF8ASOVkSq/DKcSIECAAAECBAgQIECAAAECBEoUMFIZqUrMzU0RIECAAAECBAgQIECAAAECBPIFjFRGqvwynEqAAAECBAgQIECAAAECBAgQKFHASGWkKjE3N0WAAAECBAgQIECAAAECBAgQyBcwUhmp8stwKgECBAgQIECAAAECBAgQIECgRAEjlZGqxNzcFAECBAgQIECAAAECBAgQIEAgX8BIZaTKL8OpBAgQIECAAAECBAgQIECAAIESBfoeqd75+G58+smVODPAcWeiIte9tf08TvrR3NqJ5KPR3I5nja34bfNZvPqfvx35KLETN0WAAAECBAgQIECAAAECBAgQGKhA7yPV5EzcXNk5vDPN1YW4MDkVVRmUBvE4TjpQJd+XN1Jlr+/wh+ETAgQIECBAgAABAgQIECBAgMCIC/Q2Uk3eiLmf9yKeb8Sdjy/FOx8vRu15RNSX47KhqnCoy45K/XydN1KNeGvuPgECBAgQIECAAAECBAgQIECgUKCHkWo6Lj9qRLzciNn3U0dOvb8QtZcRu3++66V/BS9P7GeUyl7WSFXYrDMIECBAgAABAgQIECBAgACBCgp0H6k+fBT12Ikfbl6KC3dr8aSxE81GPX64eyPeuVmLZuzE4mep8apgsBnEy+mG/Tqzw1M/XxupKvhs85AIECBAgAABAgQIECBAgACBQoGuI9W15b2Inx/Guc8eRzP24smPizG39DR2Yy9++OOVmPs5YveneUdT5Yxz/YxS2csaqQqbdQYBAgQIECBAgAABAgQIECBQQYEuI9VsLDYianen4+JSozVWvdMaYy61xqn60q04c3cj4nktruWMNMN+pNOg7192eOrnayNVBZ9tHhIBAgQIECBAgAABAgQIECBQKNBlpFqIWjTiwcxUTPyxFrvRiJXbs3H59lrrJYCtl/nNLEc9NmLWSHXsDdT7GaWylzVSFTbrDAIECBAgQIAAAQIECBAgQKCCAh1Gqo/i2o+NiGjE/Y+T95yajsv/tRH1lxHxshErd2/sv8Tv4+Q9qyJ2VxfivKHqyFCVHZ76+dpIVcFnm4dEgAABAgQIECBAgAABAgQIFAoUjlRnvliL3ZcbMffB9JHhJe8lcmeuLsb6y4j1+StdL5v3/VU9rZ9RKntZI1Vhs84gQIAAAQIECBAgQIAAAQIEKihQOFJ9+ue9aD6a7Xl0ar3B+upCz5ev6jCVflzZ4amfr41UFXy2eUgECBAgQIAAAQIECBAgQIBAoUDhSDW7GpG8MXp6dOn0eeuN1Y1UR7z6GaWylzVSFTbrDAIECBAgQIAAAQIECBAgQKCCAoUj1Xvf1iM2H8flyam4+O1G1L6b3X8PqsP3nboSny434sn3t2JicjYWNyOefHv9yEjTadQah/Oyw1M/XxupKvhs85AIECBAgAABAgQIECBAgACBQoHCkSoZnh5sJu+bXt9/s/TYi/WlhzF37+Bj6WnsJlf7shH15P3V68utQWscxqdeH2M/o1T2skaqwmadQYAAAQIECBAgQIAAAQIECFRQoHikSo6YmpyJT7/fiCe/Po65e4/jSWMnmsm/7td4Gis/1eLOF3fj/spaLH77ZUxNJv8CoI+0QXZ46udrI1UFn20eEgECBAgQIECAAAECBAgQIFAo0HmkSo9OHy9HPTZiZTUiVteiFo148LFRKj1KZT/vZ5TKXtZIVdisMwgQIECAAAECBAgQIECAAIEKCvQ+Us3sj1S11ki1sT9SzRipssNU+uvs8NTP10aqCj7bPCQCBAgQIECAAAECBAgQIECgUKD3kWpyNu4sLcT91kj1KGaXFr0HVfpIs5zP+xmlspc1UhU26wwCBAgQIECAAAECBAgQIECgggK9j1QHI8y5T+bj5idXvP9UziiVPooq+Tw7PPXztZGqgs82D4kAAQIECBAgQIAAAQIECBAoFOh7pMoOMb4ufsljP6NU9rJGqsJmnUGAAAECBAgQIECAAAECBAhUUMBI1cMRUScd4rLDUz9fG6kq+GzzkAgQIECAAAECBAgQIECAAIFCASOVkaowDmcQIECAAAECBAgQIECAAAECBMoSMFIZqcpqze0QIECAAAECBAgQIECAAAECBAoFjFRGqsI4nEGAAAECBAgQIECAAAECBAgQKEvASGWkKqs1t0OAAAECBAgQIECAAAECBAgQKBQwUhmpCuNwBgECBAgQIECAAAECBAgQIECgLAEjlZGqrNbcDgECBAgQIECAAAECBAgQIECgUMBIZaQqjMMZBAgQIECAAAECBAgQIECAAIGyBIxURqqyWnM7BAgQIECAAAECBAgQIECAAIFCASOVkaowDmcQIECAAAECBAgQIECAAAECBMoSMFIZqcpqze0QIECAAAECBAgQIECAAAECBAoFjFRGqsI4nEGAAAECBAgQIECAAAECBAgQKEvASGWkKqs1t0OAAAECBAgQIECAAAECBAgQKBQwUhmpCuNwBgECBAgQIECAAAECBAgQIECgLAEjlZGqrNbcDgECBAgQIECAAAECBAgQIECgUMBIZaQqjMMZBAgQIECAAAECBAgQIECAAIGyBIxURqqyWnM7BAgQIECAAAECBAgQIECAAIFCASOVkaowDmcQIECAAAECBAgQIECAAAECBMoSMFKN0Ei1tf080h9lReJ2CBAgQIAAAQIECBAgQIAAAQKDFjBSjdBINegYXD8BAgQIECBAgAABAgQIECBA4LQEjFRGqtNqz+0SIECAAAECBAgQIECAAAECBA4FjFRGqsMYfEKAAAECBAgQIECAAAECBAgQOC0BI5WR6rTac7sECBAgQIAAAQIECBAgQIAAgUOBNxyppuPyYmP/yp4/jTszUzExwNFn1K47/Sbn/X7e3NqJ5KPR3I5nja34bfPZ4Q/NJwQIECBAgAABAgQIECBAgACBqgn0P1K9+1Fcvn4r3mmNUfNRS4nUl24ZqVIjXb/DVPryRqpUWD4lQIAAAQIECBAgQIAAAQIEKi/Q40g1HRfu1uJJY+81SP1xfPrBjbj/a/ukvajdvh5T718yVB0MVenRqd/PjVTtrvxJgAABAgQIECBAgAABAgQIjINAjyPV9bjzy17sNuqxsrQYc9+vRfNVwrMX64vzce3rh3Hz5t24/3Qv4tVa3EwdTTRqL9F7m/e332EqfXkj1Tg8/TxGAgQIECBAgAABAgQIECBAoC3Q40iVfa+p6bjwXX3/Op4+ijuLtVj8OTnKKjma6iNHUjmSqt2XPwkQIECAAAECBAgQIECAAAECPQl0HKnOfTIfc/ceZj4W44eDl/jtbj+N+189iieto6oi6ouzccZRVIcjXfrIqH4/dyRVT/26EAECBAgQIECAAAECBAgQIFARgY4j1fGXvl2JT1d2Wg999yMnXggAACAASURBVNe1eLC0EBeTUer9L+Pm5zcMVJmBrt9hKn15I1VFnmEeBgECBAgQIECAAAECBAgQINCTQM5IdT2uHTt66uBoqu+WY+XgVX7xshEr99r/yl/25YC+Tga+9OjU7+dGqp76dSECBAgQIECAAAECBAgQIECgIgI5I1XBwDT5TfywHdFcWYirXzyKWuNA4Pla3Px9wfdkjiw6fmRWtb+v32EqfXkjVUWeYR4GAQIECBAgQIAAAQIECBAg0JNAbyPVu9dj9qfkZX57sfLF9MF7Lt2IB8lRVS83jFQFY1x6dOr3cyNVT/26EAECBAgQIECAAAECBAgQIFARgS4j1aW4eG8tmgdvjN589M3h+06dn3/aIlif96/5FR0h1u8wlb68kaoizzAPgwABAgQIECBAgAABAgQIEOhJoHik+sNCrLRf0tdYi7mPLx3+q3UTv1+I2suI+PVRXCg4iqhouBmn09OjU7+fG6l66teFCBAgQIAAAQIECBAgQIAAgYoIFI5U575ei+Z2PX7Ie3P0mUdRf9mI+zPVfk+pNx3U+h2m0pc3UlXkGeZhECBAgAABAgQIECBAgAABAj0JFI5UbzrQ+H7/ul9PBboQAQIECBAgQIAAAQIECBAgQCAijFQDfLli+siofj93JJXnJwECBAgQIECAAAECBAgQIDBOAkYqI9U49e6xEiBAgAABAgQIECBAgAABAkMqYKQyUg1pmu4WAQIECBAgQIAAAQIECBAgME4CRioj1Tj17rESIECAAAECBAgQIECAAAECQypgpDJSDWma7hYBAgQIECBAgAABAgQIECAwTgJGKiPVOPXusRIgQIAAAQIECBAgQIAAAQJDKmCkMlINaZruFgECBAgQIECAAAECBAgQIDBOAkYqI9U49e6xEiBAgAABAgQIECBAgAABAkMqYKQyUg1pmu4WAQIECBAgQIAAAQIECBAgME4CRioj1Tj17rESIECAAAECBAgQIECAAAECQypgpDJSDWma7hYBAgQIECBAgAABAgQIECAwTgJGKiPVOPXusRIgQIAAAQIECBAgQIAAAQJDKmCkMlINaZruFgECBAgQIECAAAECBAgQIDBOAkYqI9U49e6xEiBAgAABAgQIECBAgAABAkMqYKQyUg1pmu4WAQIECBAgQIAAAQIECBAgME4CRioj1Tj17rESIECAAAECBAgQIECAAAECQypgpDJSDWma7hYBAgQIECBAgAABAgQIECAwTgJGKiPVOPXusRIgQIAAAQIECBAgQIAAAQJDKmCkGqGRamv7eaQ/hrQpd4sAAQIECBAgQIAAAQIECBAg0LeAkWqERqoXL15E+qPvn7ZvIECAAAECBAgQIECAAAECBAgMqYCRykg1pGm6WwQIECBAgAABAgQIECBAgMA4CRipjFTj1LvHSoAAAQIECBAgQIAAAQIECAypgJHKSDWkabpbBAgQIECAAAECBAgQIECAwDgJGKmMVOPUu8dKgAABAgQIECBAgAABAgQIDKlAjyPVdJz75G7Mff84Vn5ai5UfH8XcF7NxbnIqJgY48oz6daf/Jb5+P29u7UTy0Whux7PGVvy2+ezIm6Ynb6DuPwIECBAgQIAAAQIECBAgQIBAVQS6jlTvfPYo1rcLHu6rnVhf+ibOG6pyx7p+h6n05Y1UBc05mQABAgQIECBAgAABAgQIEKikQMeR6vztjdhNHvbzp/HgixupI6em49yHd+P+zzstlN3VhZhyVNWxoSo9OvX7uZGqks83D4oAAQIECBAgQIAAAQIECBAoECgcqc58shz1iNj9+WFcaA1QBy/5+2o2zh0eOTUdF+aftoas+qPZOHN4upcBJi9V7HeYSl/eSFVQrJMJECBAgAABAgQIECBAgACBSgoUjFQ34n6yUG0+jsvJQDV5I+bW9/YBNpfj4pExajquLSdHVDXi/ofGqfT7aKVHp34/N1JV8vnmQREgQIAAAQIECBAgQIAAAQIFAvkj1cz+UVTr81di4mx7hNqJ2r1b8c6RgepglPr9w1iPiOaPXx57yVt6tBm3z/sdptKXN1IVFOtkAgQIECBAgAABAgQIECBAoJICuSPVufmnEfE05n6fHEW1ELWIqC/d6jBAXYm5XyLi10fxXt6INaanpUenfj83UlXy+eZBESBAgAABAgQIECBAgAABAgUCuSPVxaVGRGzEbDIuXZqPxZ/W4s5nnV/KN7uavDww+1LAzt9T9SOr+h2m0pc3UhUU62QCBAgQIECAAAECBAgQIECgkgK5I9V73yVvSLURsz3/i33TMZu83s9IdeRos/To1O/nRqpKPt88KAIECBAgQIAAAQIECBAgQKBAIHekmrhZi93Yi5Wvpo+MLoVHPk3Ox8rLiN0/3+3t8mPy8r9+h6n05Y1UBcU6mQABAgQIECBAgAABAgQIEKikQP5IdfbLWNyOiF8exvkeBqXzrfew2onFLi8JLBy5eriNUfze9OjU7+dGqko+3zwoAgQIECBAgAABAgQIECBAoECgYKSainNfb8Ru6w3TZ+NMhxHpzCf7/xLg7vpCT4PWKI5NJ73P/Q5T6csbqQqKdTIBAgQIECBAgAABAgQIECBQSYHCkWri7HRcbr2BekRz9WFc/pfMS/8mr8TlexvRTFieb8Ts++P9Jul5Q1Z6dOr3cyNVJZ9vHhQBAgQIECBAgAABAgQIECBQINBhpEpGp+m4cHctmq/2v3t3uxHrP63Fen0ndg9OazZ2WmfWl79xJFXmiLN+h6n05Y1UBcU6mQABAgQIECBAgAABAgQIEKikQJeR6uDoqHevx7V7y/HDej2a2zvRrD+NlR8X49ofLrWGrMvf1fdfGmioOvLG8enRqd/PjVSVfL55UAQIECBAgAABAgQIECBAgECBQG8jVeYIoeMvbZuO/aFqL1a+SIYrL/1LDPodptKXN1IVFOtkAgQIECBAgAABAgQIECBAoJICb2mkOnhp4Mc3Or7J+riNV+nRqd/PjVSVfL55UAQIECBAgAABAgQIECBAgECBwFscqRw9lR3h+h2m0pc3UhUU62QCBAgQIECAAAECBAgQIECgkgJGqgG+NDE9OvX7uZGqks83D4oAAQIECBAgQIAAAQIECBAoEDBSGakK0nAyAQIECBAgQIAAAQIECBAgQKA8ASOVkaq82twSAQIECBAgQIAAAQIECBAgQKBAwEhlpCpIw8kECBAgQIAAAQIECBAgQIAAgfIEjFRGqvJqc0sECBAgQIAAAQIECBAgQIAAgQIBI5WRqiANJxMgQIAAAQIECBAgQIAAAQIEyhMwUhmpyqvNLREgQIAAAQIECBAgQIAAAQIECgSMVEaqgjScTIAAAQIECBAgQIAAAQIECBAoT8BIZaQqrza3RIAAAQIECBAgQIAAAQIECBAoEDBSGakK0nAyAQIECBAgQIAAAQIECBAgQKA8ASOVkaq82twSAQIECBAgQIAAAQIECBAgQKBAwEhlpCpIw8kECBAgQIAAAQIECBAgQIAAgfIEjFRGqvJqc0sECBAgQIAAAQIECBAgQIAAgQIBI9UIjVRb288j/VHwM3UyAQIECBAgQIAAAQIECBAgQGDkBIxUIzRSvXjxItIfI1ebO0yAAAECBAgQIECAAAECBAgQKBAwUhmpCtJwMgECBAgQIECAAAECBAgQIECgPAEjlZGqvNrcEgECBAgQIECAAAECBAgQIECgQMBIZaQqSMPJBAgQIECAAAECBAgQIECAAIHyBIxURqryanNLBAgQIECAAAECBAgQIECAAIECASOVkaogDScTIECAAAECBAgQIECAAAECBMoTMFIZqcqrzS0RIECAAAECBAgQIECAAAECBAoEjFRGqoI0nEyAAAECBAgQIECAAAECBAgQKE/ASGWkKq82t0SAAAECBAgQIECAAAECBAgQKBAwUhmpCtJwMgECBAgQIECAAAECBAgQIECgPAEjlZGqvNrcEgECBAgQIECAAAECBAgQIECgQMBIZaQqSMPJBAgQIECAAAECBAgQIECAAIHyBIxURqryanNLBAgQIECAAAECBAgQIECAAIECASOVkaogDScTIECAAAECBAgQIECAAAECBMoTMFIZqcqrzS0RIECAAAECBAgQIECAAAECBAoECkaq6bhwdy3qLw++62UjVu7dineODDqX4uq3G10uMxUTR75nvL7e2n4eJ/1obu1E8tFobsezxlb8tvksXrx4ceSj4GfqZAIECBAgQIAAAQIECBAgQIDAyAnkjlQXvqtHvGrE4he34r1L1+Py7VrUX0Xsrj+MC5NTMTF5I+bW91qX+eH2bOsyF7943LrMk+9ujPUwlR7lTjpQJd9npBq555I7TIAAAQIECBAgQIAAAQIECLyBQM5I9WUsbkesz185Mjad+WA+VhoRsbkRtc2IaKzFzQ+mj1zm3PzTiOe1uDbGR08Zqd6gRt9KgAABAgQIECBAgAABAgQIjK1Azki1ELVoxIOZ4y/NO/OHR/GkRVWP+x8eHaha48zMctRjI2aNVK3xzpFUY/u88sAJECBAgAABAgQIECBAgACBPgVyRqpb8WAzOZLqoyNHSb3z2fL+S/5+Xo4HyUv9Xtbj/meXjlzmfHIk1eZyXDRSGan6DNHFCRAgQIAAAQIECBAgQIAAgfEWyBmppuLc1xuxG3ux/uPDuHbzbtz58WnsRkT9x2/ifGuA+iiu/Zi89i+5zGJ8evObmGtdZi9qXx99mWD65W/j9rkjqcb7yeXREyBAgAABAgQIECBAgAABAr0L5I5UyZh0/o+Polbfieb2TjR/XYv7n8/EmSNHSE3H1OePYuXXg8vUN+L+H48efTVuo1T28Rqpeg/RJQkQIECAAAECBAgQIECAAIHxFigcqbKDi6+Pv0dXNxMj1Xg/uTx6AgQIECBAgAABAgQIECBAoHcBI9WRo8P6H6I6DVVGqt5DdEkCBAgQIECAAAECBAgQIEBgvAWMVEaq8X4GePQECBAgQIAAAQIECBAgQIDAUAgYqYxUQxGiO0GAAAECBAgQIECAAAECBAiMt4CRykg13s8Aj54AAQIECBAgQIAAAQIECBAYCgEjlZFqKEJ0JwgQIECAAAECBAgQIECAAIHxFjBSGanG+xng0RMgQIAAAQIECBAgQIAAAQJDIWCkMlINRYjuBAECBAgQIECAAAECBAgQIDDeAkYqI9V4PwM8egIECBAgQIAAAQIECBAgQGAoBIxURqqhCNGdIECAAAECBAgQIECAAAECBMZbwEhlpBrvZ4BHT4AAAQIECBAgQIAAAQIECAyFgJHKSDUUIboTBAgQIECAAAECBAgQIECAwHgLGKmMVOP9DPDoCRAgQIAAAQIECBAgQIAAgaEQMFIZqYYiRHeCAAECBAgQIECAAAECBAgQGG8BI9UIjVRb288j/THe6Xr0BAgQIECAAAECBAgQIECAQJUEjFQjNFK9ePEi0h9VCtFjIUCAAAECBAgQIECAAAECBMZbwEhlpBrvZ4BHT4AAAQIECBAgQIAAAQIECAyFgJHKSDUUIboTBAgQIECAAAECBAgQIECAwHgLGKmMVOP9DPDoCRAgQIAAAQIECBAgQIAAgaEQMFIZqYYiRHeCAAECBAgQIECAAAECBAgQGG8BI5WRaryfAR49AQIECBAgQIAAAQIECBAgMBQCRioj1VCE6E4QIECAAAECBAgQIECAAAEC4y1gpDJSjfczwKMnQIAAAQIECBAgQIAAAQIEhkLASGWkGooQ3QkCBAgQIECAAAECBAgQIEBgvAV+97/f/zh8nMxgosvAtbX9PE760dzaieSj0dyOZ42t+G3zWbx48eLIx3in69ETIECAAAECBAgQIECAAAECVRJwJFWXoanbENXp/JMOVMn3Gamq9DTzWAgQIECAAAECBAgQIECAAIFuAkYqI1W3RpxPgAABAgQIECBAgAABAgQIEBi4gJHKSDXwyNwAAQIECBAgQIAAAQIECBAgQKCbgJHKSNWtEecTIECAAAECBAgQIECAAAECBAYuYKQyUg08MjdAgAABAgQIECBAgAABAgQIEOgmYKQyUnVrxPkECBAgQIAAAQIECBAgQIAAgYELGKmMVAOPzA0QIECAAAECBAgQIECAAAECBLoJGKmMVN0acT4BAgQIECBAgAABAgQIECBAYOACRioj1cAjcwMECBAgQIAAAQIECBAgQIAAgW4CRiojVbdGnE+AAAECBAgQIECAAAECBAgQGLiAkcpINfDI3AABAgQIECBAgAABAgQIECBAoJuAkcpI1a0R5xMgQIAAAQIECBAgQIAAAQIEBi5gpDJSDTwyN0CAAAECBAgQIECAAAECBAgQ6CZgpDJSdWvE+QQIECBAgAABAgQIECBAgACBgQsYqYxUA4/MDRAgQIAAAQIECBAgQIAAAQIEugkYqYxU3RpxPgECBAgQIECAAAECBAgQIEBg4AJGKiPVwCNzAwQIECBAgAABAgQIECBAgACBbgJGKiNVt0acT4AAAQIECBAgQIAAAQIECBAYuICRykg18MjcAAECBAgQIECAAAECBAgQIECgm0DOSDUdlxfrsZv9zlc7sXL7o5g42+38qZgY4PAzSte9tf08TvrR3NqJ5KPR3I5nja34bfNZvHjx4shH9kfkawIECBAgQIAAAQIECBAgQIDAqArkjFTzUYu9+OGr6/HepdcfF7+vR2wux8Wz3c7PjlQLUetRp750KzVwJd+3EbPdBq+ZhZidyd7mcHx90oEq+T4jVY/RuBgBAgQIECBAgAABAgQIECBQCYGckSoZhxrxIDv83N44GKm6nd/DQHR7I44OUnnfkx6pbsWDzWLv7teVd/2DP81IVfwzcw4BAgQIECBAgAABAgQIECBAIC1QwkiVjE09/re6EBNncy6/uhwPNnOGs25HWZ3y+UaqHn/uLkaAAAECBAgQIECAAAECBAiMvUAJI9XRI5YuLjV6OIpqKiZmlqN++HK/5EgqI5X3pBr75ysAAgQIECBAgAABAgQIECBQWYETjFR3Y+XlXtTmbx15z6rkzdb337Pq6Cg1u9qnXetoqqlIxqw4MlIVXE/rfbKO3uawvLm6I6kKfmZOJkCAAAECBAgQIECAAAECBAhkBE4wUk3F+a9qUd/eiWb6o/E07n8ynXrj8+xwtBC1wkEp/f5Tyfel34MqOYLq4EiqpY2IgxGrNUQlR1sVXmf29sv/2kiVqc2XBAgQIECAAAECBAgQIECAAIECgRONVP0eqbR/VFTBPTg8OfUv+bXGp8b+y/1an29ErfVyv6NDV88vHTyl96Z62yNV9voO6XxCgAABAgQIECBAgAABAgQIEBhxgROMVNORvLRvN/vAX+3Eyu2PMkdS7R8R1frX9zoe9XT0SKrkJYK12+nTkuvZH7H2z0uOikqfX/5RUr0MddlRqZ+vm1s7kXw0mtvxrLEVv20+y4r7mgABAgQIECBAgAABAgQIECBQGYETjFTzUYu9+OGr60fek+ri9/nvSXU45iQjVUe29pFUt+LB6nJcPDJCpQap1vVsRG01ensD9lM6iip53P2MUtnLGqk6xuJMAgQIECBAgAABAgQIECBAoGICJxipksEo51/au72R+8bpR0aqwvePSo1Qh6NS6rTkulPvRdV6M/bC6xqeo6qyw1M/XxupKvZM83AIECBAgAABAgQIECBAgACBjgLljlQd70r7SKr2yNQeqVKj2MHRWK2XDybDVSQvC2xffvj+7GeUyl7WSNUxFmcSIECAAAECBAgQIECAAAECFRMod6QqPPqpPUilh6b90x4sNVov62u9+fqx70+959XhEVjp6zjdz7PDUz9fG6kq9kzzcAgQIECAAAECBAgQIECAAIGOAjkj1d1YebkXtflbR95zKnmz9GiNRN3OP91h6PDlhUMwWvUzSmUva6Tq2K0zCRAgQIAAAQIECBAgQIAAgYoJ5IxUU3H+q1rUt3eimf5oPI37n0y3/vW+bucP01B0mvclOzz187WRqmLPNA+HAAECBAgQIECAAAECBAgQ6CiQO1Kd5rBTpdvuZ5TKXtZI1bFbZxIgQIAAAQIECBAgQIAAAQIVEzBSDfBlgdnhqZ+vjVQVe6Z5OAQIECBAgAABAgQIECBAgEBHASOVkapjIM4kQIAAAQIECBAgQIAAAQIECJQhYKQyUpXRmdsgQIAAAQIECBAgQIAAAQIECHQUMFIZqToG4kwCBAgQIECAAAECBAgQIECAQBkCRiojVRmduQ0CBAgQIECAAAECBAgQIECAQEcBI5WRqmMgziRAgAABAgQIECBAgAABAgQIlCFgpDJSldGZ2yBAgAABAgQIECBAgAABAgQIdBQwUhmpOgbiTAIECBAgQIAAAQIECBAgQIBAGQJGKiNVGZ25DQIECBAgQIAAAQIECBAgQIBARwEjlZGqYyDOJECAAAECBAgQIECAAAECBAiUIWCkMlKV0ZnbIECAAAECBAgQIECAAAECBAh0FDBSGak6BuJMAgQIECBAgAABAgQIECBAgEAZAkYqI1UZnbkNAgQIECBAgAABAgQIECBAgEBHASOVkapjIM4kQIAAAQIECBAgQIAAAQIECJQhYKQyUpXRmdsgQIAAAQIECBAgQIAAAQIECHQUMFIZqToG4kwCBAgQIECAAAECBAgQIECAQBkCRiojVRmduQ0CBAgQIECAAAECBAgQIECAQEcBI5WRqmMgziRAgAABAgQIECBAgAABAgQIlCFgpDJSldGZ2yBAgAABAgQIECBAgAABAgQIdBQwUhmpOgbiTAIECBAgQIAAAQIECBAgQIBAGQJGKiNVGZ25DQIECBAgQIAAAQIECBAgQIBARwEjlZGqYyDOJECAAAECBAgQIECAAAECBAiUIWCkMlKV0ZnbIECAAAECBAgQIECAAAECBAh0FCgeqSZn4uq3j2Plp7WePxa//TKmJqdiYoDDzyhd99b28zjpR3NrJ5KPRnM7njW24rfNZx1/kM4kQIAAAQIECBAgQIAAAQIECIyyQMFIdSVuru5FvNqJJ+s9jlTr9Wi+ithdnY9zRqrWUHfSgSr5PiPVKD+t3HcCBAgQIECAAAECBAgQIECgX4GCkWohahFRuzvd11FRZ+5uRMRGzPYyUt3u5bK34sFm3vUlpzfiwcxwH7VlpOo3R5cnQIAAAQIECBAgQIAAAQIExlWgYKS6FXMrtZjrdwTqaXh6PSxdXGpErC50GMJSI1Vy3YeXzYxUR857ff2n/dJAI9W4Pq08bgIECBAgQIAAAQIECBAgQKBfgZyR6qO4+vXDmLt38PH5jTjTOjLqo7i5VPDSv6X5OJ9cJnekSgalPu/W5nJcbN1maqQ6OxXJqFVfuhUTZ9MjVXLUV97RVqc/Vhmp+vy5uzgBAgQIECBAgAABAgQIECAwtgI5I9WtuPPLTjS3Dz7WH8aFNxqpUmNRhyOekgGqdrt92ZxhqzVctcep9p9TMbs6vC/7e9sjVfb6xrZaD5wAAQIECBAgQIAAAQIECBConEDOSJUMRddj9vuFeK81TrWHox7+zD2SKv19C1E7PEoqfXoyOuUdDVV0lNTrkeq0X9LX6fazo1I/X3vj9Mo91zwgAgQIECBAgAABAgQIECBAoINAwUiVPw6d+ZeZeO/S9eMf71/af1+priNVcuRTpI6YOhiqCo6war1nVTSivpl8z/6buRc9lv2XAaaHr9P/vJ9RKntZI1XRT9rpBAgQIECAAAECBAgQIECAQBUF+hipkqOXCghercXNwvekyoxFM8tRP/IeUsn4lPeSveSoq42oJf+K31LyLwHmXWb/ul+/V1Xmtvo9EuwtXz47PPXztZGqoDUnEyBAgAABAgQIECBAgAABApUU6GOk6mEA6uFIquTlca0jpFr/Ut/+8PX6vahe38b+e1SlXwbYYSSLOHhD9dff3+lleGWd188olb2skaqSzzcPigABAgQIECBAgAABAgQIECgQyBmppuPcB9fj4se39l/W98GVg3/dr4cBqMeR6nCoKhyXbsWD1eRf+EuPVMW370iqgp+ukwkQIECAAAECBAgQIECAAAECIyKQM1LNHn1Z3/NaXGu9DO56zK2m/tW/9r/+l/z59FFc7PXlfoeXi6itJi/j63QUlJGq0dyOZ42t+G3z2Ygk5W4SIECAAAECBAgQIECAAAECBPoXyBmpkiOWrsfsj8tx8/300UvTceHzhzF3L+fj6y/j/OH4lPev9O1fT/Km6a3/Wi/1e33dRadPpI6kar1EsMPj88bpHXCcRYAAAQIECBAgQIAAAQIECBAYcoGCkWr/X9LLe6+oju/nlPtyv9fvJdX1+lrfHxGbyUv9khHLkVSOpBryZ5C7R4AAAQIECBAgQIAAAQIECLwVgYKRaj5qEfHk24+i4yjVGpJeHxF1/tt6RGzs/0t/mfP6uZ6qXDb7Zuj9fO2N099K366EAAECBAgQIECAAAECBAgQGBGBgpFqOi4vNVoPYTf93lMdP99rXb6+NNv7G61XfMjqZ5TKXtZINSLPIHeTAAECBAgQIECAAAECBAgQeCsCBSNVcnTUdEz9+3z+e1DlvS/VvYdx899nDFSp4S07PPXztZHqrfTtSggQIECAAAECBAgQIECAAIEREegwUr1+GV9VXn5X9uPoZ5TKXtZINSLPIHeTAAECBAgQIECAAAECBAgQeCsCRqrUkU9ve8TKDk/9fG2keit9uxICBAgQIECAAAECBAgQIEBgRASMVEaqEUnV3SRAgAABAgQIECBAgAABAgSqLGCkMlJVuW+PjQABAgQIECBAgAABAgQIEBgRASOVkWpEUnU3CRAgQIAAAQIECBAgQIAAgSoLGKmMVFXu22MjQIAAAQIECBAgQIAAAQIERkTASGWkGpFU3U0CBAgQIECAAAECBAgQIECgygJGKiNVlfv22AgQIECAAAECBAgQIECAG6gMsgAADzJJREFUAIERETBSGalGJFV3kwABAgQIECBAgAABAgQIEKiygJHKSFXlvj02AgQIECBAgAABAgQIECBAYEQEjFRGqhFJ1d0kQIAAAQIECBAgQIAAAQIEqixgpDJSVblvj40AAQIECBAgQIAAAQIECBAYEQEjlZFqRFJ1NwkQIECAAAECBAgQIECAAIEqCxipjFRV7ttjI0CAAAECBAgQIECAAAECBEZEwEhlpBqRVN1NAgQIECBAgAABAgQIECBAoMoCRiojVZX79tgIECBAgAABAgQIECBAgACBEREwUhmpRiRVd5MAAQIECBAgQIAAAQIECBCosoCRykhV5b49NgIECBAgQIAAAQIECBAgQGBEBIxURqoRSdXdJECAAAECBAgQIECAAAECBKosYKQyUlW5b4+NAAECBAgQIECAAAECBAgQGBEBI5WRakRSdTcJECBAgAABAgQIECBAgACBKgsYqYxUVe7bYyNAgAABAgQIECBAgAABAgRGRMBIZaQakVTdTQIECBAgQIAAAQIECBAgQKDKAkYqI1WV+/bYCBAgQIAAAQIECBAgQIAAgRERKByp3vlsMVZ+3Ynmdh8f9Y24//lMnBng8DMxQte9tf08TvrR3NqJ5KPR3I5nja34bfPZiCTlbhIgQIAAAQIECBAgQIAAAQIE+hfIH6k+fBRPYi/qK49i7t7Dnj/u/Pg0dmMnFj+bilEakwZ1X086UCXflzdSZa+v/x+37yBAgAABAgQIECBAgAABAgQIDKdA/kh1eyNiczku9n3U0nTMrkfUl27ljlSzq3kIGzF7eDsLUYuI2u1qjFzZUamfr/NGqjw9pxEgQIAAAQIECBAgQIAAAQIEqiDwlkeqqUiGqI4j1erCkQGrNVwdDmJGqvaQZaSqwtPLYyBAgAABAgQIECBAgAABAgR6FehhpPoori09jear5Cr3ov7TQlyYLD7Sqd+RaiI5aivaR1MZqYxUvabrcgQIECBAgAABAgQIECBAgECVBLqOVBcXGxGbtfj0wytx7g9348HTvYjNx3H13fRQNR3vvDvdOkKq35GqdSTV4dFVRiojVZWeXh4LAQIECBAgQIAAAQIECBAg0KtA15Hq6rdrcf/m/gDVeoPxyZmYXd2LaGzE3CdX4tz7szG3unP4HlZdR6rsPTt8qV8yehmpjFTZQHxNgAABAgQIECBAgAABAgQIjINA15Eq/1++S70E8NVe1NcfxbX394+s6jpSHR41tX/5i0sNL/fbfh7tcar9p/ekGoenn8dIgAABAgQIECBAgAABAgQItAVOOFKlX+p39PN+R6qjR085kspI1U7TnwQIECBAgAABAgQIECBAgMA4CRipzh4d2fKPHDvZZdqD00n+dCTVOD0NPVYCBAgQIECAAAECBAgQIECgeKRqPI7LfQ84H8WdpxH1xVutN1HPDj5H3yR9f/jxcr/jL/VLRi0jlScnAQIECBAgQIAAAQIECBAgME4C+SPV5N1YeRkRL3eiud3Hx/O9iFf1uPNh/pFHrZHqmG4jHsy0L+/lfu2jroxUx0JxAgECBAgQIECAAAECBAgQIFBhgfyRKjmC6t1b8en3j2Plp7XMRz2asRf1n7Onr8UPSw/j6gepfwmw7yOx2mNVNf5sD04n+dNIVeFnnYdGgAABAgQIECBAgAABAgQIHBMoHqnaA9Pkjfj03sOYO/yoxZPYi9r36dPm4+rBv+6XfYnfOH99knGq/T1GqmOtOoEAAQIECBAgQIAAAQIECBCosED3ker3d+PBsaOpskdR1WLu8CV71TgK6m2Ma+3B6SR/Gqkq/Kzz0AgQIECAAAECBAgQIECAAIFjAt1HqvYRVf7MfTP4TmPWScap9vcYqY616gQCBAgQIECAAAECBAgQIECgwgJGqgGOb+3B6SR/Gqkq/Kzz0AgQIECAAAECBAgQIECAAIFjAkYqI9WxKJxAgAABAgQIECBAgAABAgQIEChbwEhlpCq7ObdHgAABAgQIECBAgAABAgQIEDgmYKQyUh2LwgkECBAgQIAAAQIECBAgQIAAgbIFjFRGqrKbc3sECBAgQIAAAQIECBAgQIAAgWMCRioj1bEonECAAAECBAgQIECAAAECBAgQKFvASGWkKrs5t0eAAAECBAgQIECAAAECBAgQOCZgpDJSHYvCCQQIECBAgAABAgQIECBAgACBsgWMVEaqsptzewQIECBAgAABAgQIECBAgACBYwJGKiPVsSicQIAAAQIECBAgQIAAAQIECBAoW8BIZaQquzm3R4AAAQIECBAgQIAAAQIECBA4JmCkMlIdi8IJBAgQIECAAAECBAgQIECAAIGyBYxURqqym3N7BAgQIECAAAECBAgQIECAAIFjAkYqI9WxKJxAgAABAgQIECBAgAABAgQIEChbwEhlpCq7ObdHgAABAgQIECBAgAABAgQIEDgmYKQyUh2LwgkECBAgQIAAAQIECBAgQIAAgbIFjFRGqrKbc3sECBAgQIAAAQIECBAgQIAAgWMCRioj1bEonECAAAECBAgQIECAAAECBAgQKFvASDUiI9XmX5+V3YbbI0CAAAECBAgQIECAAAECBAiUJmCkGpmRqlFaFG6IAAECBAgQIECAAAECBAgQIFC2gJFqxEaqv/3tb9H+KDsWt0eAAAECBAgQIECAAAECBAgQGJSAkWpERqrfNp8djlNGqkE9HVwvAQIECBAgQIAAAQIECBAgcFoCRqoRGKn++qwZyUjV3NppfTSa25F8+I8AAQIECBAgQIAAAQIECBAgUBUBI9UIjFTPGlux+VfvSVWVJ53HQYAAAQIECBAgQIAAAQIECBwX6GGkmo6pzx9Frb4Tuy/3Yne7EbXv78bU5FRMDHDgqcJ1b20/jzf5aB8xlYxUyZFU/iNAgAABAgQIECBAgAABAgQIVFWg60h18dt67L7aiZV7s/Hepevx3vWF+KEeEfVHcfXmo1j5cTGufjDd02A1uxpRX7rV02XbI9XFpUbf39P+3tP+800GquR7jVRVfdp5XAQIECBAgAABAgQIECBAgEBWoPNI9fuHsR6NWPwkM0JNzsbiZsT6/GzceZpcZSMeZC9z7CirhahtLsfF9um3N7L3Zf/r1YXUiHUrHmxuxOzB9yQjV/5/jXgwM3xHdr3JSJV+/ykv98v/qTuVAAECBAgQIECAAAECBAgQqI5A55Hq642I9LDUHpjOTkVyhFOszsfE2Utx9VGjdWTVhdT52aOYLi5tHAxJC1GLjZhNRqojg9RUTGRPu71x5CiqZKSq3c6OUcmQVe2Rqv3G6dXJziMhQIAAAQIECBAgQIAAAQIECBwV6DxSfbEWu43HcTlnfLr8aOdgpJqKicmD4Snncq2xamY56geD1OHQlB2kku89clrqKKrk9M3leDCmI5X3pDoara8IECBAgAABAgQIECBAgACB6gl0Hqkm52Pl5V7Ubn+UegneVEy8vxC1l3ux8tX+ywDP392I3YIjrpKRqnXUVduuffRUMjzl/Zc6f//9q14fKXU4cB0Zw16fnz1667S/9nK/vB+w0wgQIECAAAECBAgQIECAAAECxwU6j1Rnp+L8V2vRfLUXT1Yexdy9hzH3fS2ePI9o/nk+zicD1LdPYzeS96eaOTpkHRmSkpfo3YoHq5n3pGoPUu3Lpo6kSg9b7TdbN1Id/wE6hQABAgQIECBAgAABAgQIECBQBYGOI9WZD+bjh829iNiL3frTWPlpLVZ+acTuy4h42YiVuzdi6o+PYuXXnYjYiZWvMkdctcens1Mxu9qIB0sHR08l41RqkDo84unYaUffbD0ZqfL/q/Z7Uu2/cfqz/IfuVAIECBAgQIAAAQIECBAgQIBABQQKR6oznyxHPSLqKwtx8d3sm5Vfive+eBz1VxH1pdk4kxxx9cda1F8V/Ct/yXtSJVjpI6e6vdzv7MH7XB18b/toqsNBKzWADetpb/Plfr9tGqkq8HzzEAgQIECAAAECBAgQIECAAIECgfyR6vfzrfecqt2daQ1QRSPQmQ/235uq/Z5VF75vRPz8MM71MiAdO2oq88bp7REr+15Xqe9LXhI4zOOVkaqgOicTIECAAAECBAgQIECAAAECBDICuSPV1R93Ynd1oaex6dztjdjdfhxXk2Hq0qN48nItPi0YqQ5frpcMT6mx6XAEyzsteS+rzYja7amYaB1VtRGzh9e/f96wDlVGqkxtviRAgAABAgQIECBAgAABAgQIFAjkjFTJ8LMXP9zMvsSv6Otv4ofnO7H4yaU4f2kx1iM9Ih18z8FRUa2hqT0w5Q1SR07bH6AiDt5v6thA1b4/qRGrfd1D8qeRqqA6JxMgQIAAAQIECBAgQIAAAQIEMgI5I9XBe0FNtkeg7n/u/6t7t+L+051oNh7HtY4jUXt8ytyT9Jeby/Gn1YOjp1rXdXCfiq43GbCyLwssumyJpxup0j9UnxMgQIAAAQIECBAgQIAAAQIEigUKRqqncefS9Xivx487P6cHpe6j1uHL+0ocjE7jNo1UxeE5hwABAgQIECBAgAABAgQIECCQFsgZqQ6OiNreiWbPH/W4P2Ocyg5hRqp0aj4nQIAAAQIECBAgQIAAAQIECBQL5IxUxqbs2HTSr41UxeE5hwABAgQIECBAgAABAgQIECCQFjBSDfAlh0aqdGo+J0CAAAECBAgQIECAAAECBAgUCxipjFTFdTiHAAECBAgQIECAAAECBAgQIFCSgJHKSFVSam6GAAECBAgQIECAAAECBAgQIFAsYKQyUhXX4RwCBAgQIECAAAECBAgQIECAQEkCRiojVUmpuRkCBAgQIECAAAECBAgQIECAQLGAkcpIVVyHcwgQIECAAAECBAgQIECAAAECJQkYqYxUJaXmZggQIECAAAECBAgQIECAAAECxQJGKiNVcR3OIUCAAAECBAgQIECAAAECBAiUJGCkMlKVlJqbIUCAAAECBAgQIECAAAECBAgUCxipjFTFdTiHAAECBAgQIECAAAECBAgQIFCSgJHKSFVSam6GAAECBAgQIECAAAECBAgQIFAsYKQyUhXX4RwCBAgQIECAAAECBAgQIECAQEkCRiojVUmpuRkCBAgQIECAAAECBAgQIECAQLGAkcpIVVyHcwgQIECAAAECBAgQIECAAAECJQkYqYxUJaXmZggQIECAAAECBAgQIECAAAECxQL/HyxmXuSZlD8VAAAAAElFTkSuQmCC;" parent="1" vertex="1">
          <mxGeometry y="80" width="1193" height="462" as="geometry" />
        </mxCell>
        <mxCell id="_yo2szXEqY88CM3MnoLY-3" value="" style="html=1;verticalLabelPosition=bottom;labelBackgroundColor=#ffffff;verticalAlign=top;shadow=0;dashed=0;strokeWidth=2;shape=mxgraph.ios7.misc.down;strokeColor=#FFFFFF;" parent="1" vertex="1">
          <mxGeometry x="62" y="109" width="12" height="6" as="geometry" />
        </mxCell>
        <mxCell id="F38Q8mKzhE_pPw9E_ZsN-1" value="Db&amp;nbsp; Designer" style="text;html=1;align=center;verticalAlign=middle;whiteSpace=wrap;rounded=0;fontColor=#ffffff;fontSize=20;" vertex="1" parent="1">
          <mxGeometry x="480" y="86" width="120" height="30" as="geometry" />
        </mxCell>
        <mxCell id="F38Q8mKzhE_pPw9E_ZsN-2" value="表格" style="text;html=1;strokeColor=none;fillColor=none;align=center;verticalAlign=middle;whiteSpace=wrap;rounded=0;fontSize=18;" vertex="1" parent="1">
          <mxGeometry x="150" y="140" width="60" height="30" as="geometry" />
        </mxCell>
        <mxCell id="F38Q8mKzhE_pPw9E_ZsN-3" value="编辑" style="text;html=1;strokeColor=none;fillColor=none;align=center;verticalAlign=middle;whiteSpace=wrap;rounded=0;fontSize=18;" vertex="1" parent="1">
          <mxGeometry x="210" y="140" width="60" height="30" as="geometry" />
        </mxCell>
        <mxCell id="F38Q8mKzhE_pPw9E_ZsN-4" value="…" style="text;html=1;strokeColor=none;fillColor=none;align=center;verticalAlign=middle;whiteSpace=wrap;rounded=0;" vertex="1" parent="1">
          <mxGeometry x="270" y="140" width="60" height="30" as="geometry" />
        </mxCell>
        <mxCell id="F38Q8mKzhE_pPw9E_ZsN-50" style="edgeStyle=orthogonalEdgeStyle;rounded=0;orthogonalLoop=1;jettySize=auto;html=1;exitX=0;exitY=0.5;exitDx=0;exitDy=0;entryX=0;entryY=0.5;entryDx=0;entryDy=0;" edge="1" parent="1" source="F38Q8mKzhE_pPw9E_ZsN-5" target="F38Q8mKzhE_pPw9E_ZsN-43">
          <mxGeometry relative="1" as="geometry">
            <Array as="points">
              <mxPoint x="140" y="270" />
              <mxPoint x="140" y="380" />
              <mxPoint x="400" y="380" />
              <mxPoint x="400" y="450" />
            </Array>
          </mxGeometry>
        </mxCell>
        <mxCell id="F38Q8mKzhE_pPw9E_ZsN-5" value="" style="shape=table;html=1;whiteSpace=wrap;startSize=0;container=1;collapsible=0;childLayout=tableLayout;strokeWidth=2;" vertex="1" parent="1">
          <mxGeometry x="160" y="230" width="210" height="80" as="geometry" />
        </mxCell>
        <mxCell id="F38Q8mKzhE_pPw9E_ZsN-6" value="" style="shape=tableRow;horizontal=0;startSize=0;swimlaneHead=0;swimlaneBody=0;top=0;left=0;bottom=0;right=0;collapsible=0;dropTarget=0;fillColor=none;points=[[0,0.5],[1,0.5]];portConstraint=eastwest;" vertex="1" parent="F38Q8mKzhE_pPw9E_ZsN-5">
          <mxGeometry width="210" height="27" as="geometry" />
        </mxCell>
        <mxCell id="F38Q8mKzhE_pPw9E_ZsN-7" value="字段" style="shape=partialRectangle;html=1;whiteSpace=wrap;connectable=0;fillColor=none;top=0;left=0;bottom=0;right=0;overflow=hidden;fontStyle=1" vertex="1" parent="F38Q8mKzhE_pPw9E_ZsN-6">
          <mxGeometry width="105" height="27" as="geometry">
            <mxRectangle width="105" height="27" as="alternateBounds" />
          </mxGeometry>
        </mxCell>
        <mxCell id="F38Q8mKzhE_pPw9E_ZsN-8" value="字段类型" style="shape=partialRectangle;html=1;whiteSpace=wrap;connectable=0;fillColor=none;top=0;left=0;bottom=0;right=0;overflow=hidden;fontStyle=1" vertex="1" parent="F38Q8mKzhE_pPw9E_ZsN-6">
          <mxGeometry x="105" width="105" height="27" as="geometry">
            <mxRectangle width="105" height="27" as="alternateBounds" />
          </mxGeometry>
        </mxCell>
        <mxCell id="F38Q8mKzhE_pPw9E_ZsN-9" value="" style="shape=tableRow;horizontal=0;startSize=0;swimlaneHead=0;swimlaneBody=0;top=0;left=0;bottom=0;right=0;collapsible=0;dropTarget=0;fillColor=none;points=[[0,0.5],[1,0.5]];portConstraint=eastwest;" vertex="1" parent="F38Q8mKzhE_pPw9E_ZsN-5">
          <mxGeometry y="27" width="210" height="26" as="geometry" />
        </mxCell>
        <mxCell id="F38Q8mKzhE_pPw9E_ZsN-10" value="ID1" style="shape=partialRectangle;html=1;whiteSpace=wrap;connectable=0;fillColor=none;top=0;left=0;bottom=0;right=0;overflow=hidden;" vertex="1" parent="F38Q8mKzhE_pPw9E_ZsN-9">
          <mxGeometry width="105" height="26" as="geometry">
            <mxRectangle width="105" height="26" as="alternateBounds" />
          </mxGeometry>
        </mxCell>
        <mxCell id="F38Q8mKzhE_pPw9E_ZsN-11" value="INT（NOT ULL）" style="shape=partialRectangle;html=1;whiteSpace=wrap;connectable=0;fillColor=none;top=0;left=0;bottom=0;right=0;overflow=hidden;" vertex="1" parent="F38Q8mKzhE_pPw9E_ZsN-9">
          <mxGeometry x="105" width="105" height="26" as="geometry">
            <mxRectangle width="105" height="26" as="alternateBounds" />
          </mxGeometry>
        </mxCell>
        <mxCell id="F38Q8mKzhE_pPw9E_ZsN-12" value="" style="shape=tableRow;horizontal=0;startSize=0;swimlaneHead=0;swimlaneBody=0;top=0;left=0;bottom=0;right=0;collapsible=0;dropTarget=0;fillColor=none;points=[[0,0.5],[1,0.5]];portConstraint=eastwest;" vertex="1" parent="F38Q8mKzhE_pPw9E_ZsN-5">
          <mxGeometry y="53" width="210" height="27" as="geometry" />
        </mxCell>
        <mxCell id="F38Q8mKzhE_pPw9E_ZsN-13" value="Name1" style="shape=partialRectangle;html=1;whiteSpace=wrap;connectable=0;fillColor=none;top=0;left=0;bottom=0;right=0;overflow=hidden;" vertex="1" parent="F38Q8mKzhE_pPw9E_ZsN-12">
          <mxGeometry width="105" height="27" as="geometry">
            <mxRectangle width="105" height="27" as="alternateBounds" />
          </mxGeometry>
        </mxCell>
        <mxCell id="F38Q8mKzhE_pPw9E_ZsN-14" value="VARCHAR（256，NOT NULL）" style="shape=partialRectangle;html=1;whiteSpace=wrap;connectable=0;fillColor=none;top=0;left=0;bottom=0;right=0;overflow=hidden;" vertex="1" parent="F38Q8mKzhE_pPw9E_ZsN-12">
          <mxGeometry x="105" width="105" height="27" as="geometry">
            <mxRectangle width="105" height="27" as="alternateBounds" />
          </mxGeometry>
        </mxCell>
        <mxCell id="F38Q8mKzhE_pPw9E_ZsN-16" value="Table1" style="text;html=1;strokeColor=none;fillColor=none;align=center;verticalAlign=middle;whiteSpace=wrap;rounded=0;" vertex="1" parent="1">
          <mxGeometry x="235" y="320" width="60" height="30" as="geometry" />
        </mxCell>
        <mxCell id="F38Q8mKzhE_pPw9E_ZsN-17" value="" style="shape=table;html=1;whiteSpace=wrap;startSize=0;container=1;collapsible=0;childLayout=tableLayout;strokeWidth=2;" vertex="1" parent="1">
          <mxGeometry x="435" y="230" width="210" height="80" as="geometry" />
        </mxCell>
        <mxCell id="F38Q8mKzhE_pPw9E_ZsN-18" value="" style="shape=tableRow;horizontal=0;startSize=0;swimlaneHead=0;swimlaneBody=0;top=0;left=0;bottom=0;right=0;collapsible=0;dropTarget=0;fillColor=none;points=[[0,0.5],[1,0.5]];portConstraint=eastwest;" vertex="1" parent="F38Q8mKzhE_pPw9E_ZsN-17">
          <mxGeometry width="210" height="27" as="geometry" />
        </mxCell>
        <mxCell id="F38Q8mKzhE_pPw9E_ZsN-19" value="字段" style="shape=partialRectangle;html=1;whiteSpace=wrap;connectable=0;fillColor=none;top=0;left=0;bottom=0;right=0;overflow=hidden;fontStyle=1" vertex="1" parent="F38Q8mKzhE_pPw9E_ZsN-18">
          <mxGeometry width="105" height="27" as="geometry">
            <mxRectangle width="105" height="27" as="alternateBounds" />
          </mxGeometry>
        </mxCell>
        <mxCell id="F38Q8mKzhE_pPw9E_ZsN-20" value="字段类型" style="shape=partialRectangle;html=1;whiteSpace=wrap;connectable=0;fillColor=none;top=0;left=0;bottom=0;right=0;overflow=hidden;fontStyle=1" vertex="1" parent="F38Q8mKzhE_pPw9E_ZsN-18">
          <mxGeometry x="105" width="105" height="27" as="geometry">
            <mxRectangle width="105" height="27" as="alternateBounds" />
          </mxGeometry>
        </mxCell>
        <mxCell id="F38Q8mKzhE_pPw9E_ZsN-21" value="" style="shape=tableRow;horizontal=0;startSize=0;swimlaneHead=0;swimlaneBody=0;top=0;left=0;bottom=0;right=0;collapsible=0;dropTarget=0;fillColor=none;points=[[0,0.5],[1,0.5]];portConstraint=eastwest;" vertex="1" parent="F38Q8mKzhE_pPw9E_ZsN-17">
          <mxGeometry y="27" width="210" height="26" as="geometry" />
        </mxCell>
        <mxCell id="F38Q8mKzhE_pPw9E_ZsN-22" value="ID1" style="shape=partialRectangle;html=1;whiteSpace=wrap;connectable=0;fillColor=none;top=0;left=0;bottom=0;right=0;overflow=hidden;" vertex="1" parent="F38Q8mKzhE_pPw9E_ZsN-21">
          <mxGeometry width="105" height="26" as="geometry">
            <mxRectangle width="105" height="26" as="alternateBounds" />
          </mxGeometry>
        </mxCell>
        <mxCell id="F38Q8mKzhE_pPw9E_ZsN-23" value="INT（NOT ULL）" style="shape=partialRectangle;html=1;whiteSpace=wrap;connectable=0;fillColor=none;top=0;left=0;bottom=0;right=0;overflow=hidden;" vertex="1" parent="F38Q8mKzhE_pPw9E_ZsN-21">
          <mxGeometry x="105" width="105" height="26" as="geometry">
            <mxRectangle width="105" height="26" as="alternateBounds" />
          </mxGeometry>
        </mxCell>
        <mxCell id="F38Q8mKzhE_pPw9E_ZsN-24" value="" style="shape=tableRow;horizontal=0;startSize=0;swimlaneHead=0;swimlaneBody=0;top=0;left=0;bottom=0;right=0;collapsible=0;dropTarget=0;fillColor=none;points=[[0,0.5],[1,0.5]];portConstraint=eastwest;" vertex="1" parent="F38Q8mKzhE_pPw9E_ZsN-17">
          <mxGeometry y="53" width="210" height="27" as="geometry" />
        </mxCell>
        <mxCell id="F38Q8mKzhE_pPw9E_ZsN-25" value="Name1" style="shape=partialRectangle;html=1;whiteSpace=wrap;connectable=0;fillColor=none;top=0;left=0;bottom=0;right=0;overflow=hidden;" vertex="1" parent="F38Q8mKzhE_pPw9E_ZsN-24">
          <mxGeometry width="105" height="27" as="geometry">
            <mxRectangle width="105" height="27" as="alternateBounds" />
          </mxGeometry>
        </mxCell>
        <mxCell id="F38Q8mKzhE_pPw9E_ZsN-26" value="VARCHAR（256，NOT NULL）" style="shape=partialRectangle;html=1;whiteSpace=wrap;connectable=0;fillColor=none;top=0;left=0;bottom=0;right=0;overflow=hidden;" vertex="1" parent="F38Q8mKzhE_pPw9E_ZsN-24">
          <mxGeometry x="105" width="105" height="27" as="geometry">
            <mxRectangle width="105" height="27" as="alternateBounds" />
          </mxGeometry>
        </mxCell>
        <mxCell id="F38Q8mKzhE_pPw9E_ZsN-27" value="Table2" style="text;html=1;strokeColor=none;fillColor=none;align=center;verticalAlign=middle;whiteSpace=wrap;rounded=0;" vertex="1" parent="1">
          <mxGeometry x="510" y="320" width="60" height="30" as="geometry" />
        </mxCell>
        <mxCell id="F38Q8mKzhE_pPw9E_ZsN-38" value="Table3" style="text;html=1;strokeColor=none;fillColor=none;align=center;verticalAlign=middle;whiteSpace=wrap;rounded=0;" vertex="1" parent="1">
          <mxGeometry x="235" y="500" width="60" height="30" as="geometry" />
        </mxCell>
        <mxCell id="F38Q8mKzhE_pPw9E_ZsN-39" value="" style="shape=table;html=1;whiteSpace=wrap;startSize=0;container=1;collapsible=0;childLayout=tableLayout;strokeWidth=2;" vertex="1" parent="1">
          <mxGeometry x="435" y="410" width="210" height="80" as="geometry" />
        </mxCell>
        <mxCell id="F38Q8mKzhE_pPw9E_ZsN-40" value="" style="shape=tableRow;horizontal=0;startSize=0;swimlaneHead=0;swimlaneBody=0;top=0;left=0;bottom=0;right=0;collapsible=0;dropTarget=0;fillColor=none;points=[[0,0.5],[1,0.5]];portConstraint=eastwest;" vertex="1" parent="F38Q8mKzhE_pPw9E_ZsN-39">
          <mxGeometry width="210" height="27" as="geometry" />
        </mxCell>
        <mxCell id="F38Q8mKzhE_pPw9E_ZsN-41" value="字段" style="shape=partialRectangle;html=1;whiteSpace=wrap;connectable=0;fillColor=none;top=0;left=0;bottom=0;right=0;overflow=hidden;fontStyle=1" vertex="1" parent="F38Q8mKzhE_pPw9E_ZsN-40">
          <mxGeometry width="105" height="27" as="geometry">
            <mxRectangle width="105" height="27" as="alternateBounds" />
          </mxGeometry>
        </mxCell>
        <mxCell id="F38Q8mKzhE_pPw9E_ZsN-42" value="字段类型" style="shape=partialRectangle;html=1;whiteSpace=wrap;connectable=0;fillColor=none;top=0;left=0;bottom=0;right=0;overflow=hidden;fontStyle=1" vertex="1" parent="F38Q8mKzhE_pPw9E_ZsN-40">
          <mxGeometry x="105" width="105" height="27" as="geometry">
            <mxRectangle width="105" height="27" as="alternateBounds" />
          </mxGeometry>
        </mxCell>
        <mxCell id="F38Q8mKzhE_pPw9E_ZsN-43" value="" style="shape=tableRow;horizontal=0;startSize=0;swimlaneHead=0;swimlaneBody=0;top=0;left=0;bottom=0;right=0;collapsible=0;dropTarget=0;fillColor=none;points=[[0,0.5],[1,0.5]];portConstraint=eastwest;" vertex="1" parent="F38Q8mKzhE_pPw9E_ZsN-39">
          <mxGeometry y="27" width="210" height="26" as="geometry" />
        </mxCell>
        <mxCell id="F38Q8mKzhE_pPw9E_ZsN-44" value="ID1" style="shape=partialRectangle;html=1;whiteSpace=wrap;connectable=0;fillColor=none;top=0;left=0;bottom=0;right=0;overflow=hidden;" vertex="1" parent="F38Q8mKzhE_pPw9E_ZsN-43">
          <mxGeometry width="105" height="26" as="geometry">
            <mxRectangle width="105" height="26" as="alternateBounds" />
          </mxGeometry>
        </mxCell>
        <mxCell id="F38Q8mKzhE_pPw9E_ZsN-45" value="INT（NOT ULL）" style="shape=partialRectangle;html=1;whiteSpace=wrap;connectable=0;fillColor=none;top=0;left=0;bottom=0;right=0;overflow=hidden;" vertex="1" parent="F38Q8mKzhE_pPw9E_ZsN-43">
          <mxGeometry x="105" width="105" height="26" as="geometry">
            <mxRectangle width="105" height="26" as="alternateBounds" />
          </mxGeometry>
        </mxCell>
        <mxCell id="F38Q8mKzhE_pPw9E_ZsN-46" value="" style="shape=tableRow;horizontal=0;startSize=0;swimlaneHead=0;swimlaneBody=0;top=0;left=0;bottom=0;right=0;collapsible=0;dropTarget=0;fillColor=none;points=[[0,0.5],[1,0.5]];portConstraint=eastwest;" vertex="1" parent="F38Q8mKzhE_pPw9E_ZsN-39">
          <mxGeometry y="53" width="210" height="27" as="geometry" />
        </mxCell>
        <mxCell id="F38Q8mKzhE_pPw9E_ZsN-47" value="Name1" style="shape=partialRectangle;html=1;whiteSpace=wrap;connectable=0;fillColor=none;top=0;left=0;bottom=0;right=0;overflow=hidden;" vertex="1" parent="F38Q8mKzhE_pPw9E_ZsN-46">
          <mxGeometry width="105" height="27" as="geometry">
            <mxRectangle width="105" height="27" as="alternateBounds" />
          </mxGeometry>
        </mxCell>
        <mxCell id="F38Q8mKzhE_pPw9E_ZsN-48" value="VARCHAR（256，NOT NULL）" style="shape=partialRectangle;html=1;whiteSpace=wrap;connectable=0;fillColor=none;top=0;left=0;bottom=0;right=0;overflow=hidden;" vertex="1" parent="F38Q8mKzhE_pPw9E_ZsN-46">
          <mxGeometry x="105" width="105" height="27" as="geometry">
            <mxRectangle width="105" height="27" as="alternateBounds" />
          </mxGeometry>
        </mxCell>
        <mxCell id="F38Q8mKzhE_pPw9E_ZsN-49" value="Table4" style="text;html=1;strokeColor=none;fillColor=none;align=center;verticalAlign=middle;whiteSpace=wrap;rounded=0;" vertex="1" parent="1">
          <mxGeometry x="510" y="500" width="60" height="30" as="geometry" />
        </mxCell>
        <mxCell id="F38Q8mKzhE_pPw9E_ZsN-54" value="" style="endArrow=none;html=1;rounded=0;exitX=0.796;exitY=0.108;exitDx=0;exitDy=0;exitPerimeter=0;entryX=0.8;entryY=1.007;entryDx=0;entryDy=0;entryPerimeter=0;" edge="1" parent="1" source="_yo2szXEqY88CM3MnoLY-1" target="_yo2szXEqY88CM3MnoLY-1">
          <mxGeometry width="50" height="50" relative="1" as="geometry">
            <mxPoint x="790" y="371" as="sourcePoint" />
            <mxPoint x="950" y="550" as="targetPoint" />
          </mxGeometry>
        </mxCell>
        <mxCell id="F38Q8mKzhE_pPw9E_ZsN-55" value="DDL" style="text;html=1;strokeColor=none;fillColor=none;align=center;verticalAlign=middle;whiteSpace=wrap;rounded=0;fontSize=18;" vertex="1" parent="1">
          <mxGeometry x="1030" y="140" width="60" height="30" as="geometry" />
        </mxCell>
        <mxCell id="F38Q8mKzhE_pPw9E_ZsN-56" value="&lt;font style=&quot;font-size: 18px;&quot;&gt;CREATE TABLE Table1(……）&amp;nbsp;&lt;/font&gt;" style="text;html=1;strokeColor=none;fillColor=none;align=center;verticalAlign=middle;whiteSpace=wrap;rounded=0;" vertex="1" parent="1">
          <mxGeometry x="980" y="200" width="200" height="340" as="geometry" />
        </mxCell>
        <mxCell id="F38Q8mKzhE_pPw9E_ZsN-58" value="物理视图" style="text;html=1;strokeColor=none;fillColor=none;align=center;verticalAlign=middle;whiteSpace=wrap;rounded=0;" vertex="1" parent="1">
          <mxGeometry x="20" y="170" width="60" height="30" as="geometry" />
        </mxCell>
        <mxCell id="F38Q8mKzhE_pPw9E_ZsN-59" value="逻辑视图" style="text;html=1;strokeColor=none;fillColor=none;align=center;verticalAlign=middle;whiteSpace=wrap;rounded=0;" vertex="1" parent="1">
          <mxGeometry x="20" y="209" width="60" height="30" as="geometry" />
        </mxCell>
        <mxCell id="F38Q8mKzhE_pPw9E_ZsN-60" value="发起评审" style="text;html=1;strokeColor=none;fillColor=none;align=center;verticalAlign=middle;whiteSpace=wrap;rounded=0;" vertex="1" parent="1">
          <mxGeometry x="20" y="329" width="60" height="30" as="geometry" />
        </mxCell>
        <mxCell id="F38Q8mKzhE_pPw9E_ZsN-61" value="存储过程" style="text;html=1;strokeColor=none;fillColor=none;align=center;verticalAlign=middle;whiteSpace=wrap;rounded=0;" vertex="1" parent="1">
          <mxGeometry x="20" y="249" width="60" height="30" as="geometry" />
        </mxCell>
        <mxCell id="F38Q8mKzhE_pPw9E_ZsN-62" value="" style="shape=table;html=1;whiteSpace=wrap;startSize=0;container=1;collapsible=0;childLayout=tableLayout;strokeWidth=2;" vertex="1" parent="1">
          <mxGeometry x="160" y="410" width="210" height="80" as="geometry" />
        </mxCell>
        <mxCell id="F38Q8mKzhE_pPw9E_ZsN-63" value="" style="shape=tableRow;horizontal=0;startSize=0;swimlaneHead=0;swimlaneBody=0;top=0;left=0;bottom=0;right=0;collapsible=0;dropTarget=0;fillColor=none;points=[[0,0.5],[1,0.5]];portConstraint=eastwest;" vertex="1" parent="F38Q8mKzhE_pPw9E_ZsN-62">
          <mxGeometry width="210" height="27" as="geometry" />
        </mxCell>
        <mxCell id="F38Q8mKzhE_pPw9E_ZsN-64" value="字段" style="shape=partialRectangle;html=1;whiteSpace=wrap;connectable=0;fillColor=none;top=0;left=0;bottom=0;right=0;overflow=hidden;fontStyle=1" vertex="1" parent="F38Q8mKzhE_pPw9E_ZsN-63">
          <mxGeometry width="105" height="27" as="geometry">
            <mxRectangle width="105" height="27" as="alternateBounds" />
          </mxGeometry>
        </mxCell>
        <mxCell id="F38Q8mKzhE_pPw9E_ZsN-65" value="字段类型" style="shape=partialRectangle;html=1;whiteSpace=wrap;connectable=0;fillColor=none;top=0;left=0;bottom=0;right=0;overflow=hidden;fontStyle=1" vertex="1" parent="F38Q8mKzhE_pPw9E_ZsN-63">
          <mxGeometry x="105" width="105" height="27" as="geometry">
            <mxRectangle width="105" height="27" as="alternateBounds" />
          </mxGeometry>
        </mxCell>
        <mxCell id="F38Q8mKzhE_pPw9E_ZsN-66" value="" style="shape=tableRow;horizontal=0;startSize=0;swimlaneHead=0;swimlaneBody=0;top=0;left=0;bottom=0;right=0;collapsible=0;dropTarget=0;fillColor=none;points=[[0,0.5],[1,0.5]];portConstraint=eastwest;" vertex="1" parent="F38Q8mKzhE_pPw9E_ZsN-62">
          <mxGeometry y="27" width="210" height="26" as="geometry" />
        </mxCell>
        <mxCell id="F38Q8mKzhE_pPw9E_ZsN-67" value="ID1" style="shape=partialRectangle;html=1;whiteSpace=wrap;connectable=0;fillColor=none;top=0;left=0;bottom=0;right=0;overflow=hidden;" vertex="1" parent="F38Q8mKzhE_pPw9E_ZsN-66">
          <mxGeometry width="105" height="26" as="geometry">
            <mxRectangle width="105" height="26" as="alternateBounds" />
          </mxGeometry>
        </mxCell>
        <mxCell id="F38Q8mKzhE_pPw9E_ZsN-68" value="INT（NOT ULL）" style="shape=partialRectangle;html=1;whiteSpace=wrap;connectable=0;fillColor=none;top=0;left=0;bottom=0;right=0;overflow=hidden;" vertex="1" parent="F38Q8mKzhE_pPw9E_ZsN-66">
          <mxGeometry x="105" width="105" height="26" as="geometry">
            <mxRectangle width="105" height="26" as="alternateBounds" />
          </mxGeometry>
        </mxCell>
        <mxCell id="F38Q8mKzhE_pPw9E_ZsN-69" value="" style="shape=tableRow;horizontal=0;startSize=0;swimlaneHead=0;swimlaneBody=0;top=0;left=0;bottom=0;right=0;collapsible=0;dropTarget=0;fillColor=none;points=[[0,0.5],[1,0.5]];portConstraint=eastwest;" vertex="1" parent="F38Q8mKzhE_pPw9E_ZsN-62">
          <mxGeometry y="53" width="210" height="27" as="geometry" />
        </mxCell>
        <mxCell id="F38Q8mKzhE_pPw9E_ZsN-70" value="Name1" style="shape=partialRectangle;html=1;whiteSpace=wrap;connectable=0;fillColor=none;top=0;left=0;bottom=0;right=0;overflow=hidden;" vertex="1" parent="F38Q8mKzhE_pPw9E_ZsN-69">
          <mxGeometry width="105" height="27" as="geometry">
            <mxRectangle width="105" height="27" as="alternateBounds" />
          </mxGeometry>
        </mxCell>
        <mxCell id="F38Q8mKzhE_pPw9E_ZsN-71" value="VARCHAR（256，NOT NULL）" style="shape=partialRectangle;html=1;whiteSpace=wrap;connectable=0;fillColor=none;top=0;left=0;bottom=0;right=0;overflow=hidden;" vertex="1" parent="F38Q8mKzhE_pPw9E_ZsN-69">
          <mxGeometry x="105" width="105" height="27" as="geometry">
            <mxRectangle width="105" height="27" as="alternateBounds" />
          </mxGeometry>
        </mxCell>
      </root>
    </mxGraphModel>
  </diagram>
</mxfile>
